<svg width="14" height="18" viewBox="0 0 14 18" fill="none" xmlns="http://www.w3.org/2000/svg">
<path d="M0 4.39421C0.0329153 2.89073 0.282312 1.72441 1.1533 0.773257C2.13063 -0.294663 3.38268 -0.263176 4.23595 0.909699C4.66638 1.50138 5.04364 2.13768 5.40444 2.77921C5.78676 3.46011 5.62092 4.27483 5.02845 4.78517C4.73727 5.03575 4.4423 5.2942 4.11315 5.48181C3.44978 5.86096 3.289 6.47364 3.55738 7.09681C4.07897 8.30511 4.61321 9.53046 5.33228 10.6154C5.96526 11.5718 6.80207 12.4089 7.64901 13.1816C8.32124 13.7943 8.58077 13.6893 9.34162 13.1868C9.84674 12.8523 10.3759 12.5151 10.9418 12.3301C11.5001 12.1478 12.0141 12.4062 12.3698 12.9231C12.7851 13.5279 13.2357 14.1091 13.6193 14.7349C14.3169 15.8737 14.0434 16.9062 12.9003 17.5215C11.9647 18.0253 10.9722 18.1184 9.95181 17.8613C8.28453 17.4415 6.89702 16.489 5.67536 15.2951C3.09784 12.7762 1.1533 9.8322 0.287375 6.21912C0.124065 5.54478 0.0683626 4.8429 0 4.39421Z" fill="#333"/>
</svg>
